<?xml version="1.0" encoding="UTF-8"?>
<!DOCTYPE svg PUBLIC "-//W3C//DTD SVG 1.1//EN" "http://www.w3.org/Graphics/SVG/1.1/DTD/svg11.dtd">
<!-- Creator: CorelDRAW -->
<svg xmlns="http://www.w3.org/2000/svg" xml:space="preserve" width="210mm" height="297mm" version="1.1" style="shape-rendering:geometricPrecision; text-rendering:geometricPrecision; image-rendering:optimizeQuality; fill-rule:evenodd; clip-rule:evenodd"
viewBox="0 0 21000 29700"
 xmlns:xlink="http://www.w3.org/1999/xlink"
 xmlns:xodm="http://www.corel.com/coreldraw/odm/2003">
 <defs>
  <style type="text/css">
   <![CDATA[
    .fil2 {fill:black}
    .fil1 {fill:#363536}
    .fil0 {fill:#C4C4C4}
   ]]>
  </style>
 </defs>
 <g id="Слой_x0020_1">
  <metadata id="CorelCorpID_0Corel-Layer"/>
  <g id="_2103713031376">
   <path class="fil0" d="M7534.71 10929.98c24.68,-345.25 265.37,-271.49 232.41,-490.87 -34.49,-229.38 -223.7,-98.6 14.05,-494.2 134.62,-223.97 394.97,-756 544.5,-883.76 176.85,-151.1 728.58,-297.42 988.92,-438.29 258.23,-139.72 661.4,-354.75 949.64,-446.68 1674.25,-534.03 3335.2,-170.92 4465.57,676.93 942.77,707.19 1960.25,1978.27 1771.4,3830.93 -87.11,854.92 -304.25,1574.82 -722.92,2134.63 -593.6,793.67 -1503.33,1042.83 -1581.97,1210.02 757.42,93.43 3048.8,2.32 4071.23,-2.12 535.36,-2.31 1112.32,121.64 1205.9,-137.33 126.82,-350.83 -13.65,-2087.54 -90.56,-2521.01 -363.58,-2049.75 -1487.2,-3981.36 -2944.11,-5225.96 -2294.88,-1960.49 -5334.61,-2708.87 -8374.15,-1867.65 -1505.01,416.55 -2575.94,1124.64 -3520.47,1929.89l-672.82 687.05c-730.22,886.08 -1076.1,1342.85 -1603.27,2484.44 -754.07,1633.05 -800.37,2916.09 -674.62,4638.53 586.73,52.85 1381.1,10.67 1990.2,11.61 724.84,1.18 5677.08,50.85 5946.64,-7.85 69.49,-241.7 67.84,-919.89 -22.21,-1117.57 -227.77,-68.2 -608.74,-96.29 -872.89,-153.94 -1230.42,-268.5 -2421.65,-1004.57 -3228.46,-1919.87 -185.48,-210.44 -732.74,-925.98 -758.75,-1271.2 331.25,-138.16 2099.31,-70.31 2623.3,-73.18 1051.23,-5.77 7601.78,-81.1 8088.26,63.17 29.46,425.54 -531.76,1060.96 -722.1,1301.96 -575.11,728.18 -1499.09,1406.06 -2406.08,1713.57 -822.39,278.82 -839.5,204.39 -1528.71,301.11 -103.2,14.48 -105.36,7.89 -178.34,54.23 -60.74,247.43 -62,820.23 -17.11,1082.85 389.91,158.48 2075.07,-174.57 2500.45,-295.85 762.78,-217.5 1358.18,-644.61 1777.87,-1079.91 1024.47,-1062.61 1519.46,-2666.94 420.01,-4120.47 -367.82,-486.32 -949.21,-1012.89 -1592.28,-1297.88 -893.92,-396.18 -1276.77,-442.25 -2388.46,-409.96 -1043.46,30.29 -1429.25,503.74 -1916.35,982.52 -1006.5,989.23 -1125.11,558.71 -1350.69,809.48 -106.85,118.78 -131.29,329.6 -236.37,458.34l-186.66 -115.71z"/>
   <path class="fil0" d="M2949.55 19742.69c146.67,305.04 1050.09,1372.51 1308.94,1641.96 399.92,416.27 1058.33,911.77 1657.5,1265.27 2834.36,1672.44 6381.28,1702.18 9222.39,0.55 913.35,-547.02 2598.15,-2005.7 2961.65,-2914.49l-6601.84 13.7c33.74,99.62 164.44,246.41 223.89,384.1 98.68,228.44 -26.72,321.95 -41.4,540.66 193.49,74.9 873.01,358.12 975.93,521.04 -20.6,16.21 -15.42,19.07 -62.35,37.9 -199.56,80.13 -1197.35,-4.15 -1391.85,5.97 -584.1,1061.11 -251.87,1520.75 -442.92,1774.97 -166.52,-139.14 -209.92,-542.86 -259.36,-795.28 -95.55,-487.72 29.51,-552.86 43.36,-958.07 -463.56,-8.28 -2948,77.45 -3134.02,-66.51 275.21,-246.34 766.67,-427.07 1160.23,-624.71 662.37,-332.62 1006.61,-334.78 969.25,-833.81l-6589.4 6.75z"/>
   <path class="fil1" d="M660.13 16145.78c126.15,-66.75 139.72,-48.81 188.03,-210.67 106.14,-356.01 -21.9,-588.22 -21.9,-1118.21 0,-1182.51 201.02,-2199.53 585.12,-3301.76l355.73 -840.25c265.37,-530.34 545.8,-1023.09 881.13,-1477.62 232.29,-314.81 784.96,-993.63 1093.45,-1265.27l298.09 -266.7c635.7,-613.92 1377.29,-1013.21 2082.64,-1438.82 136.35,-82.29 262.62,-118.15 407.01,-190.98 454.15,-229.07 1245.58,-489.53 1757.28,-601.44 1851.21,-404.85 3507.06,-327.83 5309.26,267.49 606.03,200.19 1111.18,452.96 1648.43,743.52 457.75,247.55 1361.56,876.97 1736.29,1253.62l464.26 465.95c52.31,57.05 93.94,93.5 149.85,149.14 404.82,402.82 1001.94,1222.23 1270.73,1719.22 534.81,988.88 736.57,1457.65 1016.77,2571.15 134.35,533.91 278.87,1581.18 278.87,2146.32 0,282.87 -222.09,1362.07 132.9,1362.07 211.76,0 257.51,-432.44 265.75,-763.8l0 -332.51c0,-2046.42 -586.41,-4159.19 -1667.26,-5741.15 -116.26,-170.14 -637.11,-868.73 -815.84,-1044.56 -120.97,-118.97 -176.73,-211.26 -299.03,-332.15 -1048.21,-1036.04 -1931.96,-1683.63 -3264.72,-2283.26 -418.09,-188.11 -951.88,-383.24 -1394.41,-499.27 -2469.37,-647.46 -4948.47,-360.83 -7209.68,764.2 -557.57,277.42 -1131.62,667.05 -1623.04,1034.71 -133.92,100.22 -237.98,196.31 -365.34,299.07 -147.54,119.05 -210.32,195.33 -344.75,319.68 -134.74,124.62 -220.83,161.85 -343.53,320.88 -120.58,156.29 -219.38,221.43 -336.43,361.23 -1313.1,1568.31 -2212.94,3422.38 -2429.77,5576.63 -25.66,254.93 -66.79,1549.04 -15.74,1865.73 21.39,132.59 23.11,154.6 62.35,269.88 41.55,121.99 70.94,151.38 147.5,217.93z"/>
   <path class="fil1" d="M7534.71 10929.98l186.66 115.71c105.08,-128.74 129.52,-339.56 236.37,-458.34 225.58,-250.77 344.19,179.75 1350.69,-809.48 487.1,-478.78 872.89,-952.23 1916.35,-982.52 1111.69,-32.29 1494.54,13.78 2388.46,409.96 643.07,284.99 1224.46,811.56 1592.28,1297.88 1099.45,1453.53 604.46,3057.86 -420.01,4120.47 -419.69,435.3 -1015.09,862.41 -1777.87,1079.91 -425.38,121.28 -2110.54,454.33 -2500.45,295.85 -44.89,-262.62 -43.63,-835.42 17.11,-1082.85 72.98,-46.34 75.14,-39.75 178.34,-54.23 689.21,-96.72 706.32,-22.29 1528.71,-301.11 906.99,-307.51 1830.97,-985.39 2406.08,-1713.57 190.34,-241 751.56,-876.42 722.1,-1301.96 -486.48,-144.27 -7037.03,-68.94 -8088.26,-63.17 -523.99,2.87 -2292.05,-64.98 -2623.3,73.18 26.01,345.22 573.27,1060.76 758.75,1271.2 806.81,915.3 1998.04,1651.37 3228.46,1919.87 264.15,57.65 645.12,85.74 872.89,153.94 90.05,197.68 91.7,875.87 22.21,1117.57 -269.56,58.7 -5221.8,9.03 -5946.64,7.85 -609.1,-0.94 -1403.47,41.24 -1990.2,-11.61 -125.75,-1722.44 -79.45,-3005.48 674.62,-4638.53 527.17,-1141.59 873.05,-1598.36 1603.27,-2484.44l672.82 -687.05c944.53,-805.25 2015.46,-1513.34 3520.47,-1929.89 3039.54,-841.22 6079.27,-92.84 8374.15,1867.65 1456.91,1244.6 2580.53,3176.21 2944.11,5225.96 76.91,433.47 217.38,2170.18 90.56,2521.01 -93.58,258.97 -670.54,135.02 -1205.9,137.33 -1022.43,4.44 -3313.81,95.55 -4071.23,2.12 78.64,-167.19 988.37,-416.35 1581.97,-1210.02 418.67,-559.81 635.81,-1279.71 722.92,-2134.63 188.85,-1852.66 -828.63,-3123.74 -1771.4,-3830.93 -1130.37,-847.85 -2791.32,-1210.96 -4465.57,-676.93 -288.24,91.93 -691.41,306.96 -949.64,446.68 -260.34,140.87 -812.07,287.19 -988.92,438.29 -149.53,127.76 -409.88,659.79 -544.5,883.76 -237.75,395.6 -48.54,264.82 -14.05,494.2 32.96,219.38 -207.73,145.62 -232.41,490.87zm-6110.46 3687.59c0,1847.06 -54.27,1526.87 1029.84,1528.21 575.82,0.7 1151.72,0 1727.54,0 565.26,0 1067.62,33.23 1661.06,33.23l2260.15 1.06c169.08,-5.02 205.26,-34.41 396.66,-35.67 478.74,-3.09 1258.44,255.8 1196.41,-460.73 -23.15,-267.29 -32.73,-518.88 -32.73,-833.53 -137.69,-92.17 -129.25,-122.15 -365.85,-132.47 -1221.84,-53.17 -2232.14,-648.8 -3155.92,-1362.23 -318.14,-245.63 -1319.54,-1322.4 -1328.56,-1727.81 189.52,0 229.78,-33.19 431.85,-33.19l9800.37 0c89.7,0 91.58,15.85 166.1,33.19 -23.07,277.42 -386.42,769.15 -559.97,1001.48 -83.58,111.94 -158.4,191.83 -237.27,294.24 -252.42,327.68 -819.72,766.71 -1142.69,983.5 -1334.72,896.05 -2692.12,781.82 -2815.25,872.35 -198,145.45 -61.96,1088.73 -61.96,1333.34 80.71,18.8 215.89,66.47 298.99,66.47 634.95,0 1463.19,-140.82 1993.34,-265.76 355.3,-83.69 536.03,-149.53 849.74,-279.8 695.02,-288.6 1492.22,-955.72 1881.26,-1573.76 1748.26,-2777.31 -1020.77,-5422 -3661.22,-5422 -1047.97,0 -1500.11,108.03 -2216.05,707.47 -300.44,251.55 -913.93,1096.9 -1499.79,1045.73 -521.01,-45.48 4.66,-608.46 171.7,-912.05 58.94,-107.08 67.96,-162.76 146.12,-252.58 197.02,-226.48 562.13,-234.6 1072.77,-488.63 389.05,-193.56 606.82,-362.6 1069.75,-491.69 1161.92,-323.99 2449.51,-269.09 3503.68,302.96 800.3,434.25 1412.97,1011.32 1891.04,1796.55 734.85,1206.93 611.76,3247.78 -209.25,4348.4 -832.32,1115.78 -1661.82,1069.4 -1737.35,1352.26 451.91,239.12 1631.6,97.35 2225.74,99.55l2458.46 0.12c251.24,0 589.32,68.82 763.02,-1.06 340.28,-136.82 233.63,-1118.44 233.63,-1560.34 0,-1636.5 -570.13,-3033.77 -1229.17,-4252.39 -377.59,-698.12 -895.81,-1310.9 -1453.46,-1868.71 -98.8,-98.84 -168.06,-176.53 -274.08,-257.48l-1242.67 -949.91c-124.11,-81.58 -228.56,-146.09 -351.96,-212.83 -1572.66,-850.56 -2667.76,-1229.21 -4584.58,-1229.21 -694.16,0 -1431.95,94.99 -1993.68,232.17 -720.06,175.83 -997.08,268.62 -1674.96,550.9 -1196.29,498.17 -2086.72,1242.36 -2934.18,2082.25 -1452.83,1439.72 -2466.62,3896.53 -2466.62,5938.4z"/>
   <path class="fil1" d="M10659.83 24517.61c-2167.9,0 -3965.4,-601.95 -5368.79,-1541.27 -1112.67,-744.7 -1266.48,-966.2 -2181.2,-1905.09 -242.3,-248.69 -526.66,-657.63 -702.99,-958.07 -236.92,-403.68 -256.38,-445.9 -517.51,-445.9 -107.99,0 -25.08,28.76 -166.1,66.43 112.69,483.84 1020.19,1601.61 1403.59,1985.01 355.73,355.65 684.58,698.08 1087.44,1005.51 951.25,725.99 1821.71,1256.72 3027.92,1656.32 2190.86,725.71 4282.05,728.69 6469.77,-0.04 785.82,-261.76 1632.7,-657.59 2270.04,-1085.36 1010.3,-678 1448.32,-1073.4 2208.83,-1977.09 160.44,-190.62 1484.92,-1684.02 874.02,-1684.02 -309.78,0 -446.52,462.7 -768.86,892.2l-750.55 910.55c-286.28,284.87 -539.37,549.3 -849.27,811.84 -610.43,517.12 -1299.13,952.97 -2016.05,1306.04 -183.48,90.36 -377.27,164.96 -576.37,254.18 -877.36,393.29 -2349.38,708.76 -3443.92,708.76z"/>
   <path class="fil1" d="M2949.55 19742.69l6589.4 -6.75c37.36,499.03 -306.88,501.19 -969.25,833.81 -393.56,197.64 -885.02,378.37 -1160.23,624.71 186.02,143.96 2670.46,58.23 3134.02,66.51 -13.85,405.21 -138.91,470.35 -43.36,958.07 49.44,252.42 92.84,656.14 259.36,795.28 191.05,-254.22 -141.18,-713.86 442.92,-1774.97 194.5,-10.12 1192.29,74.16 1391.85,-5.97 46.93,-18.83 41.75,-21.69 62.35,-37.9 -102.92,-162.92 -782.44,-446.14 -975.93,-521.04 14.68,-218.71 140.08,-312.22 41.4,-540.66 -59.45,-137.69 -190.15,-284.48 -223.89,-384.1l6601.84 -13.7c-363.5,908.79 -2048.3,2367.47 -2961.65,2914.49 -2841.11,1701.63 -6388.03,1671.89 -9222.39,-0.55 -599.17,-353.5 -1257.58,-849 -1657.5,-1265.27 -258.85,-269.45 -1162.27,-1336.92 -1308.94,-1641.96zm-130 -42.22c21.15,254.22 530.11,855.04 705.03,1055.7 136.71,156.84 252.7,319.56 399.29,464.5 795.51,786.53 1482.53,1350.1 2538.94,1879.54 3413.32,1710.59 7736.76,1050.29 10500.77,-1713.72 80.12,-80.12 135.88,-135.29 216.44,-215.45l602.89 -725.99c124.03,-179.08 244.33,-335.29 351.18,-513.11 51.79,-86.25 145.1,-206.24 43.79,-270.82 -163.04,-103.91 -1482.81,49.71 -2116.97,-46.27 -300.25,-45.43 -4447.2,-53.24 -4736.66,85.62 21.81,262.27 298.99,297.66 298.99,631.22 0,194.78 -278.9,373.75 270.19,593.6l394.23 203.72c-243.63,0 -487.26,0.35 -730.89,0 -347.45,-0.55 -414.51,-63.8 -560.04,170.8 -312.26,503.31 -192.04,1018.7 -336.9,1124.84 -67.77,-290.75 -72,-364.56 -38.89,-670.03 77.22,-711.81 95.51,-625.61 -492.67,-625.61 -147.81,0 -149.65,28.45 -258.42,22.41 -702.99,-39.09 -1386.16,-22.41 -2100.3,-22.41l476.16 -254.69c183.28,-91.62 326.14,-163.08 509.42,-254.7 859.75,-429.89 908.05,-301.97 908.05,-819.48 0,-290.21 -521.12,-166.1 -797.32,-166.1l-4651.47 0.43c-344.94,2 -1023.84,-130.31 -1394.84,66z"/>
   <path class="fil2" d="M10659.83 17208.85c22.17,41.99 66.43,109.87 66.43,166.14 0,74.47 -26.29,72.9 -66.43,132.86 -132.27,-96.88 -132.27,-202.08 0,-299zm-1295.64 996.65l298.99 0 0 -597.99 154.76 310.34c162.87,326.14 75.8,287.65 476.42,287.65l0 -697.65c5.18,5.96 12.44,8.08 14.6,18.64l59.68 73.22c75.3,73.96 31.08,49.16 125.05,74.27 -6.63,4.36 -15.89,4.52 -19.65,13.46l-113.21 19.74 0 199.33 597.99 0 0 -199.33 -199.33 0c6.67,-4.63 18.29,-18.01 21.47,-11.69l137.92 -94.69c83.46,-91.85 220.12,-591.27 -325.52,-591.27 -87.35,0 -117.48,16.83 -173.9,58.62l-125.1 140.7 0 -232.52 -298.99 0 0 564.75 -265.76 -564.75 -365.42 0 0 1229.17z"/>
   <path class="fil2" d="M14181.29 18205.5l332.23 0c0,-464.26 -54.39,-528.06 99.66,-631.18 154.01,103.12 99.66,166.92 99.66,631.18l332.23 0c0,-292.56 -23.93,-385.98 33.2,-631.18l99.66 0c57.13,245.2 33.24,338.62 33.24,631.18l332.19 0c0,-566.67 90.6,-930.18 -365.43,-930.18 -123.05,0 -150.04,32.41 -199.33,99.67 -313.23,-209.77 -302.13,-28.02 -544.15,-84.44 -43.48,-10.12 -28.64,-10.09 -84.44,-15.11 -47.24,-4.28 -118.93,-0.12 -168.72,-0.12l0 930.18z"/>
   <path class="fil2" d="M2985.65 18205.5l332.23 0c0,-464.26 -54.39,-528.06 99.66,-631.18 154.01,103.12 99.67,166.92 99.67,631.18l332.19 0c0,-292.56 -23.9,-385.98 33.23,-631.18l99.67 0c57.13,245.2 33.23,338.62 33.23,631.18l332.19 0c0,-566.67 90.6,-930.18 -365.42,-930.18 -123.05,0 -150.05,32.41 -199.33,99.67 -313.24,-209.77 -302.14,-28.02 -544.2,-84.44 -43.43,-10.12 -28.6,-10.09 -84.44,-15.11 -47.2,-4.28 -118.89,-0.12 -168.68,-0.12l0 930.18z"/>
   <polygon class="fil2" points="13184.64,18205.5 14015.19,18205.5 14015.19,17906.51 13516.87,17906.51 13516.87,17707.18 13948.76,17707.18 13948.76,17408.18 13516.87,17408.18 13516.87,17242.09 13981.96,17242.09 13981.96,16943.1 13184.64,16943.1 "/>
   <path class="fil2" d="M15809.16 18205.5l332.18 0c0,-464.26 -54.34,-528.06 99.67,-631.18 190.3,50.81 132.9,137.53 132.9,631.18l332.23 0c0,-296.76 120.3,-1226.23 -564.8,-863.75l0 -465.08 -332.18 0 0 1328.83z"/>
   <path class="fil2" d="M11623.24 17075.99c9.61,432.02 164.88,199.33 365.42,199.33 275.49,0 24.45,321.29 -40.65,391.21 -283.92,305.03 -358,150.4 -358,538.97l896.98 0 0 -298.99 -332.19 0c111.32,-166.25 298.99,-254.19 298.99,-531.52 0,-649.86 -756.23,-316.34 -830.55,-299z"/>
   <path class="fil2" d="M7769.55 17840.08c0,545.45 472.39,305.58 621.49,342.74l106.77 22.6c47.24,4.24 118.93,0.08 168.72,0.08l0 -930.18 -332.22 0c0,493.66 57.4,580.41 -132.9,631.19 -154.01,-103.12 -99.67,-166.92 -99.67,-631.19l-332.19 0 0 564.76z"/>
   <path class="fil2" d="M17968.54 18205.5l332.23 0c0,-464.26 -54.38,-528.06 99.67,-631.18 190.26,50.81 132.86,137.53 132.86,631.18l332.23 0c0,-615.49 96.76,-1035.73 -507.31,-903.57 -18.21,3.96 -25.51,8.39 -41.2,9.65l-179.75 -36.14c-47.25,-4.28 -118.93,-0.12 -168.73,-0.12l0 930.18z"/>
   <path class="fil2" d="M17204.46 17939.74c30.65,-114.81 57.72,-121.09 199.33,-132.9 -14.6,175.24 -74.55,159.35 -199.33,132.9zm-265.8 -597.99c3.26,146.01 22.49,103.47 33.24,232.57 239.7,-5.34 156.09,-89.74 398.66,-33.24 -188.9,119.88 -498.33,8.24 -498.33,398.66 0,187.25 156.29,265.76 332.23,265.76 154.13,0 107.16,-60.82 236.06,-29.7l126.89 29.74c47.09,4.16 118.89,-0.04 168.57,-0.04 0,-732.85 108.26,-1074.73 -797.32,-863.75z"/>
   <path class="fil2" d="M19397.08 17939.74c30.65,-114.81 57.72,-121.09 199.33,-132.9 -14.59,175.24 -74.55,159.35 -199.33,132.9zm-265.8 -597.99c3.26,146.01 22.49,103.47 33.24,232.57 239.7,-5.34 156.09,-89.74 398.66,-33.24l-332.47 99.43c-238.92,122.66 -258.57,564.99 166.37,564.99 156.6,0 50.35,-14.28 137.53,-31.04l98.53 1.34c5.49,1.33 14.28,5.69 20.17,7.22l275.29 22.48c0,-732.85 108.26,-1074.73 -797.32,-863.75z"/>
   <path class="fil2" d="M6972.24 17939.74c30.64,-114.81 57.71,-121.09 199.32,-132.9 -14.59,175.24 -74.55,159.35 -199.32,132.9zm-265.8 -597.99c3.25,146.01 22.48,103.47 33.23,232.57 239.71,-5.34 156.09,-89.74 398.66,-33.24 -99.23,62.98 -202.35,32.61 -332.46,99.43 -238.92,122.66 -258.58,564.99 166.37,564.99 154.12,0 107.15,-60.82 236.05,-29.7l295.46 29.7c0,-732.85 108.26,-1074.73 -797.31,-863.75z"/>
   <path class="fil2" d="M2254.76 17541.08c129.13,-27.35 37,-27.35 166.14,0l0 66.43 -166.14 0 0 -66.43zm-365.42 199.33c0,632.05 673.36,435.39 830.55,431.9 -10.67,-128.04 -33.23,-107.12 -33.23,-265.8 -251.21,36.92 -320.89,85.1 -431.9,-66.43l498.33 0c0,-224.21 -33.16,-564.76 -332.19,-564.76 -332.9,0 -531.56,134.32 -531.56,465.09z"/>
   <polygon class="fil2" points="959.12,17242.09 1258.12,17242.09 1258.12,18205.5 1590.34,18205.5 1590.34,17242.09 1922.57,17242.09 1922.57,16943.1 959.12,16943.1 "/>
   <path class="fil2" d="M6008.78 17075.99l0 199.33 -99.66 0 0 265.76 99.66 0c0,604.54 -23.85,664.42 431.9,664.42 168.72,0 78.55,-153.62 66.43,-298.99 -196.15,-4.36 -166.1,12.44 -166.1,-365.43l199.33 0 0 -265.76 -199.33 0 0 -232.56c-176.84,0 -185.44,29.66 -332.23,33.23z"/>
   <path class="fil2" d="M5145.04 18205.5l332.23 0c0,-492.12 -64.75,-631.18 265.75,-631.18l0 -299c-85.3,0 -79.3,1.18 -154.48,16.52 -1.33,0.28 -37,14.36 -72.23,19.35 -96.45,13.69 -27.51,-35.87 -371.27,-35.87l0 930.18z"/>
   <polygon class="fil2" points="4580.28,18205.5 4912.51,18205.5 4912.51,17275.32 4580.28,17275.32 "/>
   <path class="fil2" d="M4580.28 17042.76c0,280.2 332.23,280.2 332.23,0 0,-182.77 -332.23,-182.77 -332.23,0z"/>
  </g>
 </g>
</svg>
